<svg width="98" height="31" viewBox="0 0 98 31" fill="none" xmlns="http://www.w3.org/2000/svg">
<g clip-path="url(#clip0_48_85)">
<path d="M0 11.55H7.73412L12.2939 21L17.0709 11.51H24.7016L14.61 30.13H9.93648L0 11.55ZM24.5052 4.55002C24.5011 3.4896 24.8776 2.46066 25.5704 1.63877C26.2633 0.816891 27.2295 0.252998 28.3044 0.0433162C29.3792 -0.166366 30.4959 -0.0088428 31.464 0.489006C32.4321 0.986855 33.1916 1.79418 33.6129 2.77321C34.0341 3.75225 34.0911 4.84233 33.774 5.85744C33.4569 6.87256 32.7854 7.7498 31.8741 8.33947C30.9628 8.92915 29.8681 9.19472 28.777 9.09087C27.6858 8.98702 26.6657 8.52018 25.8907 7.77002C25.0057 6.90866 24.5078 5.74435 24.5052 4.53002V4.55002ZM25.5391 30.15V11.55H32.7046V30.13L25.5391 30.15ZM36.4993 5.76002H43.4476V11.55H47.5835V16.88H43.4476V30.13H36.4269V16.91H34.3589V11.55H36.4269L36.4993 5.76002ZM49.3516 11.55H56.5273L56.4136 14.16C57.1266 13.1699 58.0854 12.369 59.2019 11.8308C60.3184 11.2927 61.5569 11.0345 62.8035 11.08C63.0651 11.0601 63.3278 11.0601 63.5894 11.08V17.38C62.9358 17.1107 62.2318 16.9745 61.5214 16.98C59.2053 16.98 56.4343 18.07 56.4343 20.35V30.09H49.3516V11.55ZM73.2984 10.94C75.7185 10.9395 78.041 11.8631 79.7607 13.51V11.51H86.223V30.13H79.616V28.94C79.5999 28.6602 79.5999 28.3798 79.616 28.1C78.8478 28.9947 77.8807 29.7103 76.7869 30.1933C75.693 30.6764 74.5006 30.9145 73.2984 30.89C67.2496 30.89 63.6617 25.75 63.6617 20.89C63.6261 18.676 64.3612 16.5148 65.749 14.7536C67.1367 12.9925 69.0965 11.7339 71.3132 11.18C71.9638 11.0298 72.6295 10.9494 73.2984 10.94V10.94ZM79.9882 20.94C79.9868 20.3482 79.8648 19.7625 79.6291 19.2164C79.3933 18.6703 79.0485 18.1745 78.6144 17.7574C78.1803 17.3403 77.6654 17.0102 77.0992 16.7858C76.5329 16.5615 75.9265 16.4474 75.3146 16.45C74.0712 16.442 72.8749 16.9093 71.986 17.7502C71.0972 18.5911 70.5877 19.7376 70.5687 20.94C70.5821 22.1543 71.0861 23.3153 71.9729 24.1749C72.8598 25.0345 74.0592 25.5244 75.3146 25.54C76.5589 25.5138 77.7428 25.0159 78.6111 24.1536C79.4795 23.2914 79.9629 22.1337 79.9572 20.93L79.9882 20.94ZM88.6529 26.52C88.6406 25.6188 88.9059 24.7344 89.4151 23.9795C89.9243 23.2246 90.6543 22.6334 91.5121 22.2811C92.3699 21.9289 93.3167 21.8315 94.2319 22.0015C95.1472 22.1715 95.9894 22.6011 96.6513 23.2356C97.3132 23.87 97.7648 24.6807 97.9487 25.5643C98.1326 26.4479 98.0403 27.3644 97.6837 28.1972C97.3272 29.0299 96.7224 29.7411 95.9464 30.2403C95.1704 30.7394 94.2584 31.0039 93.3264 31C92.0878 31.0054 90.8973 30.5359 90.0156 29.6944C89.1339 28.853 88.6328 27.708 88.6219 26.51L88.6529 26.52Z" fill="#020202"/>
</g>
<defs>
<clipPath id="clip0_48_85">
<rect width="98" height="31" fill="#020202"/>
</clipPath>
</defs>
</svg>
